<svg width="152" height="152" viewBox="0 0 152 152" xmlns="http://www.w3.org/2000/svg" xmlns:xlink="http://www.w3.org/1999/xlink"><title>pou7-logo</title><desc>Created with Sketch.</desc><defs><circle id="path-1" cx="76" cy="76" r="76"/></defs><g id="Page-1" fill="none" fill-rule="evenodd"><g id="pou7-logo"><mask id="mask-2"><use xlink:href="#path-1"/></mask><use id="mask" xlink:href="#path-1"/><path id="background" fill="#C4DDFA" mask="url(#mask-2)" d="M0 0h152v152H0z"/><circle id="floor" fill="#ACE078" mask="url(#mask-2)" cx="76" cy="203" r="76"/><path d="M113.858 151.673C103.532 143.125 90.355 138 76 138c-15.802 0-30.177 6.21-40.893 16.362" id="stone-path" mask="url(#mask-2)"/><circle id="stone" fill="#D8D8D8" mask="url(#mask-2)" cx="87" cy="139" r="1"/><g id="troller" mask="url(#mask-2)"><path d="M40.028 76.485l-7.478-11.74" id="handelbar" stroke="#fff" stroke-width="3"/><path d="M76.16 39.32c20.346 0 36.84 16.493 36.84 36.84C113 96.505 96.506 113 76.16 113c-20.347 0-36.84-16.494-36.84-36.84h36.84V39.32z" id="Chariot" fill="#F25C5C"/><path d="M110.066 61.73c-3.02-7.09-8.2-13.04-14.715-17.024L76.415 76.464l33.652-14.735z" id="shade" fill="#DA3F3F"/><path id="nacelle-top" fill="#fff" d="M37 74h78v4H37z"/></g><g transform="translate(79 103)" id="wheel-right" mask="url(#mask-2)"><circle id="tire" fill="#556270" cx="15" cy="15" r="15"/><circle id="spoke" fill="#fff" cx="15" cy="15" r="9"/><circle id="center" fill="#556270" cx="15.5" cy="15.5" r="2.5"/></g><g transform="translate(43 103)" id="wheel-left" mask="url(#mask-2)"><circle id="tire" fill="#556270" cx="15" cy="15" r="15"/><circle id="spoke" fill="#fff" cx="15" cy="15" r="9"/><circle id="center" fill="#556270" cx="15.5" cy="15.5" r="2.5"/></g><g transform="translate(24 13)" id="cloud" mask="url(#mask-2)" fill="#fff"><path id="bottom" d="M6 15h25v7H6z"/><circle id="right" cx="30.5" cy="14.5" r="7.5"/><circle id="center" cx="19" cy="10" r="10"/><circle id="left" cx="6" cy="16" r="6"/></g><circle id="sun" fill="#fc0" mask="url(#mask-2)" cx="128" cy="4" r="29"/></g></g></svg>