<svg width="152" height="152" viewBox="0 0 152 152" xmlns="http://www.w3.org/2000/svg"><title>152 - iPad App Icon</title><desc>Created with Sketch.</desc><g id="Page-1" fill="none" fill-rule="evenodd"><g id="152---iPad-App-Icon"><circle id="background" fill="#C4DDFA" cx="76" cy="76" r="76"/><path d="M137.654 31.552C128.21 18.477 114.712 8.525 99 3.542 99.023 19.815 112.222 33 128.5 33c3.196 0 6.272-.508 9.154-1.448z" id="sun" fill="#fc0"/><path d="M122.652 136C109.774 146.03 93.585 152 76 152s-33.774-5.972-46.652-16c13.133-3.776 29.243-6 46.652-6 17.41 0 33.52 2.224 46.652 6z" id="floor" fill="#ADE178"/><g id="troller"><path d="M40.028 76.485l-7.478-11.74" id="Path-9" stroke="#fff" stroke-width="3"/><path d="M76.16 39.32c20.346 0 36.84 16.493 36.84 36.84C113 96.505 96.506 113 76.16 113c-20.347 0-36.84-16.494-36.84-36.84h36.84V39.32z" id="Chariot" fill="#F25C5C"/><path d="M110.066 61.73c-3.02-7.09-8.2-13.04-14.715-17.024L76.415 76.464l33.652-14.735z" id="Oval-4" fill="#DA3F3F"/><path id="Rectangle-2" fill="#fff" d="M37 74h78v4H37z"/></g><g id="wheel-left" transform="translate(43 103)"><circle id="Roue" fill="#556270" cx="15" cy="15" r="15"/><circle id="Roue-3" fill="#fff" cx="15" cy="15" r="9"/><circle id="Roue-4" fill="#556270" cx="15.5" cy="15.5" r="2.5"/></g><g id="wheel-right" transform="translate(79 103)"><circle id="Roue" fill="#556270" cx="15" cy="15" r="15"/><circle id="Roue-3" fill="#fff" cx="15" cy="15" r="9"/><circle id="Roue-4" fill="#556270" cx="15.5" cy="15.5" r="2.5"/></g><g id="cloud" fill="#fff"><path d="M33.002 22.804C33.106 17.37 37.542 13 43 13c4.565 0 8.416 3.06 9.614 7.24.603-.157 1.235-.24 1.886-.24 4.142 0 7.5 3.358 7.5 7.5 0 .268-.014.532-.04.793.026.232.04.468.04.707 0 3.314-2.687 6-6 6H30c-3.314 0-6-2.693-6-6 0-.168.007-.335.02-.5-.013-.165-.02-.332-.02-.5 0-3.314 2.686-6 6-6 1.094 0 2.12.293 3.002.804z" id="Oval-14"/></g></g></g></svg>